solid pyramid
  facet normal 0 0 -1
    outer loop
      vertex 0 0 0
      vertex 0 1 0
      vertex 1 1 0
    endloop
  endfacet
  facet normal 0 0 -1
    outer loop
      vertex 0 0 0
      vertex 1 1 0
      vertex 1 0 0
    endloop
  endfacet
  facet normal 0 -0.894427 0.447214
    outer loop
      vertex 0 0 0
      vertex 1 0 0
      vertex 0.5 0.5 1
    endloop
  endfacet
  facet normal 0.894427 0 0.447214
    outer loop
      vertex 1 0 0
      vertex 1 1 0
      vertex 0.5 0.5 1
    endloop
  endfacet
  facet normal 0 0.894427 0.447214
    outer loop
      vertex 1 1 0
      vertex 0 1 0
      vertex 0.5 0.5 1
    endloop
  endfacet
  facet normal -0.894427 0 0.447214
    outer loop
      vertex 0 1 0
      vertex 0 0 0
      vertex 0.5 0.5 1
    endloop
  endfacet
endsolid pyramid
